HIERARCHY
ROOT hip
{
  OFFSET 0 0 0
  CHANNELS 6 Xposition Yposition Zposition Zrotation Yrotation Xrotation
  JOINT abdomen
  {
    OFFSET 0 20.6881 -0.73152
    CHANNELS 3 Zrotation Xrotation Yrotation
    JOINT chest
    {
      OFFSET 0 11.7043 -0.48768
      CHANNELS 3 Zrotation Xrotation Yrotation
      JOINT neck
      {
        OFFSET 0 22.1894 -2.19456
        CHANNELS 3 Zrotation Xrotation Yrotation
        JOINT head
        {
          OFFSET -0.24384 7.07133 1.2192
          CHANNELS 3 Zrotation Xrotation Yrotation
          JOINT leftEye
          {
            OFFSET 4.14528 8.04674 8.04672
            CHANNELS 3 Zrotation Xrotation Yrotation
            End Site
            {
              OFFSET 1 0 0
            }
          }
          JOINT rightEye
          {
            OFFSET -3.6576 8.04674 8.04672
            CHANNELS 3 Zrotation Xrotation Yrotation
            End Site
            {
              OFFSET 1 0 0
            }
          }
        }
      }
      JOINT rCollar
      {
        OFFSET -2.68224 19.2634 -4.8768
        CHANNELS 3 Zrotation Xrotation Yrotation
        JOINT rShldr
        {
          OFFSET -8.77824 -1.95073 1.46304
          CHANNELS 3 Zrotation Xrotation Yrotation
          JOINT rForeArm
          {
            OFFSET -28.1742 -1.7115 0.48768
            CHANNELS 3 Zrotation Xrotation Yrotation
            JOINT rHand
            {
              OFFSET -22.5879 0.773209 7.07136
              CHANNELS 3 Zrotation Xrotation Yrotation
              JOINT rThumb1
              {
                OFFSET -1.2192 -0.487915 3.41376
                CHANNELS 3 Zrotation Xrotation Yrotation
                JOINT rThumb2
                {
                  OFFSET -3.37035 -0.52449 3.41376
                  CHANNELS 3 Zrotation Xrotation Yrotation
                  End Site
                  {
                    OFFSET -1.78271 -1.18214 1.43049
                  }
                }
              }
              JOINT rIndex1
              {
                OFFSET -7.75947 0.938293 5.60832
                CHANNELS 3 Zrotation Xrotation Yrotation
                JOINT rIndex2
                {
                  OFFSET -2.54057 -0.884171 1.56538
                  CHANNELS 3 Zrotation Xrotation Yrotation
                  End Site
                  {
                    OFFSET -1.62519 -0.234802 1.16502
                  }
                }
              }
              JOINT rMid1
              {
                OFFSET -8.24714 1.18213 3.41376
                CHANNELS 3 Zrotation Xrotation Yrotation
                JOINT rMid2
                {
                  OFFSET -3.10165 -0.590103 1.0647
                  CHANNELS 3 Zrotation Xrotation Yrotation
                  End Site
                  {
                    OFFSET -2.48547 -0.328903 0.83742
                  }
                }
              }
              JOINT rRing1
              {
                OFFSET -8.82822 0.546677 1.51678
                CHANNELS 3 Zrotation Xrotation Yrotation
                JOINT rRing2
                {
                  OFFSET -2.60934 -0.819778 -0.0198488
                  CHANNELS 3 Zrotation Xrotation Yrotation
                  End Site
                  {
                    OFFSET -2.33842 -0.294052 0.168128
                  }
                }
              }
              JOINT rPinky1
              {
                OFFSET -8.27202 -0.0477905 -0.4584
                CHANNELS 3 Zrotation Xrotation Yrotation
                JOINT rPinky2
                {
                  OFFSET -1.82734 -0.647385 -0.700984
                  CHANNELS 3 Zrotation Xrotation Yrotation
                  End Site
                  {
                    OFFSET -1.69225 -0.51767 -0.607171
                  }
                }
              }
            }
          }
        }
      }
      JOINT lCollar
      {
        OFFSET 2.68224 19.2634 -4.8768
        CHANNELS 3 Zrotation Xrotation Yrotation
        JOINT lShldr
        {
          OFFSET 8.77824 -1.95073 1.46304
          CHANNELS 3 Zrotation Xrotation Yrotation
          JOINT lForeArm
          {
            OFFSET 28.1742 -1.7115 0.48768
            CHANNELS 3 Zrotation Xrotation Yrotation
            JOINT lHand
            {
              OFFSET 22.5879 0.773209 7.07136
              CHANNELS 3 Zrotation Xrotation Yrotation
              JOINT lThumb1
              {
                OFFSET 1.2192 -0.487915 3.41376
                CHANNELS 3 Zrotation Xrotation Yrotation
                JOINT lThumb2
                {
                  OFFSET 3.37035 -0.52449 3.41376
                  CHANNELS 3 Zrotation Xrotation Yrotation
                  End Site
                  {
                    OFFSET 1.78271 -1.18214 1.43049
                  }
                }
              }
              JOINT lIndex1
              {
                OFFSET 7.75947 0.938293 5.60832
                CHANNELS 3 Zrotation Xrotation Yrotation
                JOINT lIndex2
                {
                  OFFSET 2.54057 -0.884171 1.56538
                  CHANNELS 3 Zrotation Xrotation Yrotation
                  End Site
                  {
                    OFFSET 1.62519 -0.234802 1.16502
                  }
                }
              }
              JOINT lMid1
              {
                OFFSET 8.24714 1.18213 3.41376
                CHANNELS 3 Zrotation Xrotation Yrotation
                JOINT lMid2
                {
                  OFFSET 3.10165 -0.590103 1.0647
                  CHANNELS 3 Zrotation Xrotation Yrotation
                  End Site
                  {
                    OFFSET 2.48547 -0.328903 0.83742
                  }
                }
              }
              JOINT lRing1
              {
                OFFSET 8.82822 0.546677 1.51678
                CHANNELS 3 Zrotation Xrotation Yrotation
                JOINT lRing2
                {
                  OFFSET 2.60934 -0.819778 -0.0198488
                  CHANNELS 3 Zrotation Xrotation Yrotation
                  End Site
                  {
                    OFFSET 2.33842 -0.294052 0.168128
                  }
                }
              }
              JOINT lPinky1
              {
                OFFSET 8.27202 -0.0477905 -0.4584
                CHANNELS 3 Zrotation Xrotation Yrotation
                JOINT lPinky2
                {
                  OFFSET 1.82734 -0.647385 -0.700984
                  CHANNELS 3 Zrotation Xrotation Yrotation
                  End Site
                  {
                    OFFSET 1.69225 -0.51767 -0.607171
                  }
                }
              }
            }
          }
        }
      }
    }
  }
  JOINT rButtock
  {
    OFFSET -8.77824 4.35084 1.2192
    CHANNELS 3 Zrotation Xrotation Yrotation
    JOINT rThigh
    {
      OFFSET 0 -1.70687 -2.19456
      CHANNELS 3 Zrotation Xrotation Yrotation
      JOINT rShin
      {
        OFFSET 0 -36.8199 0.73152
        CHANNELS 3 Zrotation Xrotation Yrotation
        JOINT rFoot
        {
          OFFSET 0.73152 -45.1104 -5.12064
          CHANNELS 3 Zrotation Xrotation Yrotation
          End Site
          {
            OFFSET -1.1221 -3.69964 12.103
          }
        }
      }
    }
  }
  JOINT lButtock
  {
    OFFSET 8.77824 4.35084 1.2192
    CHANNELS 3 Zrotation Xrotation Yrotation
    JOINT lThigh
    {
      OFFSET 0 -1.70687 -2.19456
      CHANNELS 3 Zrotation Xrotation Yrotation
      JOINT lShin
      {
        OFFSET 0 -36.8199 0.73152
        CHANNELS 3 Zrotation Xrotation Yrotation
        JOINT lFoot
        {
          OFFSET -0.73152 -45.1104 -5.12064
          CHANNELS 3 Zrotation Xrotation Yrotation
          End Site
          {
            OFFSET 1.1221 -3.69964 12.103
          }
        }
      }
    }
  }
}
MOTION
Frames:	7
Frame Time:	0.00833333
0.0 0.0 0.0 0.0 0.0 0.0 0.0 0.0 0.0 0.0 0.0 0.0 0.0 0.0 0.0 0.0 0.0 0.0 0.0 0.0 0.0 0.0 0.0 0.0 0.0 0.0 0.0 0.0 0.0 0.0 0.0 0.0 0.0 0.0 0.0 0.0 0.0 0.0 0.0 0.0 0.0 0.0 0.0 0.0 0.0 0.0 0.0 0.0 0.0 0.0 0.0 0.0 0.0 0.0 0.0 0.0 0.0 0.0 0.0 0.0 0.0 0.0 0.0 0.0 0.0 0.0 0.0 0.0 0.0 0.0 0.0 0.0 0.0 0.0 0.0 0.0 0.0 0.0 0.0 0.0 0.0 0.0 0.0 0.0 0.0 0.0 0.0 0.0 0.0 0.0 0.0 0.0 0.0 0.0 0.0 0.0 0.0 0.0 0.0 0.0 0.0 0.0 0.0 0.0 0.0 0.0 0.0 0.0 0.0 0.0 0.0 0.0 0.0 0.0 0.0 0.0 0.0 0.0 0.0 0.0 0.0 0.0 0.0 0.0 0.0 0.0 0.0 0.0 0.0 0.0 0.0 0.0
9.999999999999999e-05 62.185199999999995 0.059199999999999996 -2.554051 -88.625533 1.76537 -0.172593 3.364448 2.817029 9.5575 2.780781 -60.234571 -7.216857 -4.005357 -125.397321 27.647512 -26.685572 37.030748 53.626223 -3.289205 -6.502617 18.053055 -14.883977 -78.857809 -53.052553 -87.287714 -151.663133 -159.182133 27.550409 168.327356 -3.562003 74.216954 172.067137 -175.356828 51.816514 77.128 6.604053 -15.747749 43.443922 170.679653 10.100471 -89.737981 159.176746 32.358805 -123.377449 -17.50749 35.949208 -82.590854 -47.972836 -1.700677 -113.742946 138.222028 -55.489076 116.892388 92.42775 15.845425 -81.811995 5.281004 -30.757541 -9.379352 30.367012 11.403578 -66.587448 -11.088425 -31.06911 -13.133979 82.695305 -43.19793 -168.574963 169.960024 -40.552758 -171.082634 0.961909 51.521873 -168.922567 -175.624397 22.96018 -110.835045 -13.431301 -25.912338 -13.818745 -163.820976 -63.247589 -103.566981 151.514097 7.029365 -87.692551 82.504087 43.465088 -69.91934 -9.979511 -18.99395 -33.023966 94.577824 77.079228 -60.279414 -94.493275 -11.972359 79.333601 157.619776 -51.836248 -173.267209 46.960819 41.424144 99.055098 156.736199 44.89455 148.393474 17.626258 -47.789202 20.597804 -3.469693 51.815022 -5.012874 -0.91806 -7.410794 -2.48169 68.975174 -22.214904 -99.487239 -2.385045 -50.191681 -2.023921 2.679954 51.91977 -1.847148 5.504382 -1.970842 69.566158 -3.771439 -68.246411 171.983815
-0.314 64.3866 -1.019 3.994776 19.246394 12.928954 -7.817494 8.884772 161.797907 -5.168114 5.74081 -161.25147 9.70655 19.571822 33.112039 -33.931299 -20.992144 -74.578911 -4.424873 0.464342 -11.975426 20.353052 4.339496 23.836441 -151.789165 -31.564481 177.798632 96.943706 68.242276 -124.787682 157.155978 -54.322736 81.419994 169.942136 -13.956389 144.549371 9.666177 -7.534952 -4.455449 -2.697982 -64.670137 -26.930163 -154.13814 -26.743749 126.684094 2.360133 31.926301 4.369087 -155.49316 32.606338 135.260734 6.809334 -27.899633 13.884831 -10.448996 -11.266359 -7.333215 -1.66119 64.70643 37.082384 -2.875995 34.432 16.980066 -13.450163 -49.444255 -5.541279 141.91683 38.554267 -145.165388 -104.835105 -24.281119 -132.655103 110.090717 26.773739 -70.968255 -125.966302 -66.889297 -105.969711 11.758782 12.766594 2.060127 122.285077 -77.257321 -155.186349 127.57724 23.21794 -112.556351 -81.932843 -75.526149 -31.278474 160.49711 1.679319 -134.636762 142.820639 16.397636 -121.982008 121.7406 -79.184789 131.405727 148.124101 -60.996677 172.60972 24.69841 61.343116 -41.722519 -20.978323 5.071631 -3.575267 150.853698 81.404207 31.095191 166.183465 12.295786 -99.067847 -69.440599 -15.532559 91.556901 -166.753245 -27.305946 9.396419 -178.944519 74.282827 -1.428002 -161.398564 62.467231 -177.491407 -15.169937 -45.311678 168.912242 43.510449 -2.431083 17.713969
-1.2259 62.2669 -2.2375 6.940442 20.737959 17.013697 -13.786854 9.72058 98.056873 -10.494082 -5.063243 -102.710613 -10.001354 34.525158 -93.986405 48.714836 10.308285 57.055951 58.840155 -18.118326 -31.574827 37.045085 8.448837 24.865945 1.642759 -28.608516 -10.763135 -112.097636 -8.601002 -162.028955 -170.829393 -22.560307 -130.616053 -8.63674 36.279676 -1.468378 -139.845194 23.094324 82.639565 -5.158614 -34.294556 8.561245 -124.993186 27.290187 104.220724 -157.177525 28.95516 124.104455 -144.674644 36.11449 125.142797 -5.220858 2.198633 21.006306 -140.023545 -4.868192 -174.023369 -142.713037 -42.668494 -163.266617 1.082954 -42.530963 3.712251 -145.550767 -9.254351 -118.050463 161.197599 -11.150098 -161.440734 71.22774 -29.82909 13.522261 -6.140579 20.165108 82.362597 -158.719195 -30.820517 -136.291644 2.565631 -16.19493 -1.641826 102.49951 -61.081846 -161.275188 161.816363 -14.92635 -114.099934 162.875326 8.362002 -114.013784 157.781294 13.377355 -124.847733 -6.609536 -4.358099 -15.381477 10.79854 18.265896 -9.026381 -14.020898 -24.047563 6.320139 -5.02971 -33.584768 14.415544 28.812925 22.201581 -16.404908 -52.5837 26.08593 -47.654902 93.790817 -46.971647 -178.656455 82.624487 -43.263544 170.818905 11.407521 11.611847 91.289909 101.264809 73.150973 59.627467 -116.834562 61.491361 -141.988793 -49.528483 -3.509023 82.637045 -125.144314 -58.653926 -41.405888
-2.0660000000000003 62.5288 -2.6631 8.256564 22.766639 18.985847 -17.093114 11.409605 63.043304 -8.10805 -14.098387 -73.086836 -13.422999 25.944339 -46.593682 37.227643 -13.468568 24.995586 30.987717 -7.05029 -25.058053 25.137245 4.017983 17.882572 8.270331 -40.302701 -4.200406 44.043695 -7.118269 -27.231397 -83.807909 44.73474 116.896014 1.384375 -20.818035 -5.72585 -5.138179 13.111974 2.096268 -118.615061 -27.938078 109.275814 -151.671913 -35.532977 128.713001 19.534336 -35.763527 -20.566774 -48.157831 53.419499 49.140543 19.280772 20.959825 1.140127 -125.354392 -1.499549 170.48639 -143.67851 -49.826219 168.231059 -111.410378 54.675927 149.961361 20.12677 8.609437 40.174827 161.83061 -52.740137 -172.701244 -77.822372 43.178625 110.09944 158.554896 -23.683009 -112.250062 -139.93106 -50.976587 -123.222599 -130.271698 -39.378665 -81.519616 175.890779 -25.608532 -149.016858 3.676348 -8.844252 2.69651 20.555954 31.078887 -50.041898 145.759864 24.040559 -130.97021 8.616175 48.507207 -15.796358 0.033652 -4.666996 -3.302712 170.179348 -4.54991 -174.590738 110.163486 46.751976 -176.867366 103.046273 62.354903 160.634608 6.22569 -2.672399 -3.355101 -59.812081 -67.187909 163.192263 -71.445474 -60.901195 19.812971 151.627482 11.261435 -71.230185 -96.069821 63.817427 -74.152042 134.809819 72.312399 0.384316 -30.057695 45.964907 -69.385283 -173.633418 11.041888 -139.478501
-3.0 65.3385 -2.632 7.662078 24.908454 18.354202 -13.630022 11.490727 -101.772193 8.838155 9.309331 93.137705 -6.208135 20.509242 20.085573 -3.396471 -29.561413 -48.381069 21.530363 0.870822 4.577782 13.494681 0.534903 4.518857 -19.532317 49.838757 25.255389 74.203475 -24.240171 52.17271 -148.762478 14.041658 100.660051 141.720287 -65.236477 118.928501 -175.361388 -9.150538 90.298958 -148.974587 22.372477 66.329383 -156.486169 -41.448845 126.982612 2.090957 19.894514 -3.021111 -150.259116 0.151017 133.584683 93.304872 -46.840947 62.440194 35.938296 -12.815594 4.740071 163.802336 46.936873 171.088423 -11.812564 -75.93074 -8.412944 9.585103 30.410865 -42.189326 6.805139 -83.214286 25.479591 -88.017131 30.870542 76.010834 -64.514698 -19.325761 -48.065081 141.593935 71.132891 -119.500368 -0.199342 -22.693439 -0.006425 -8.410785 -5.439699 21.164493 155.968003 -9.864845 -122.448859 159.361433 -46.924422 -141.202918 -2.203396 -11.3618 1.335379 166.084578 12.64395 -137.740541 139.289145 -6.515279 -172.157514 -13.225461 -69.121471 17.586527 121.734406 40.958578 -174.497489 -21.263081 -44.003091 -1.294812 179.306357 78.878228 3.71596 160.025406 5.148971 -27.705911 -57.503241 61.602465 152.137464 -9.331646 31.252052 -84.703966 106.833557 75.676862 50.776498 -112.013096 57.027745 142.878691 -15.93606 -50.970905 13.298571 49.769611 13.103539 161.003188
-3.8965 67.31049999999999 -2.3604 5.727138 26.415088 17.087285 -15.837861 14.064074 43.333368 3.159134 -15.352172 -44.709204 1.33886 37.27764 137.64056 -31.061809 33.564002 -158.021858 19.688074 4.8639 27.506588 10.583591 0.1782 1.923751 0.959918 7.218663 -1.283232 64.638164 -5.122317 18.646811 -71.924334 35.040464 75.371585 5.271789 -28.056517 -2.394427 -4.225394 -3.950105 -1.192015 -91.162305 -6.636986 112.220801 -164.795403 -35.50383 119.44428 5.49009 -10.339893 -2.276891 -23.714105 33.958422 31.806953 26.07149 56.361985 -17.453325 35.108839 -9.457386 2.026978 -31.802031 -33.363836 -4.827992 8.837802 -36.829663 15.535125 85.173918 41.48768 -47.174962 163.733767 -60.190691 -168.290446 67.052254 -26.190843 60.400133 174.962079 -11.740964 138.413671 7.582222 26.117402 -0.652838 -5.481099 -17.919323 2.707472 39.267651 22.805607 -25.522408 17.372321 12.555615 2.713973 154.461374 -9.393129 -97.637193 12.290592 24.854446 -8.991318 171.62981 18.097201 -154.212687 -15.751715 -31.989548 -0.328346 -6.06617 -9.989576 -4.603568 11.90201 7.164884 -15.822819 -27.375229 -2.752378 9.622038 0.101279 -6.505964 0.753594 -32.460592 -58.62092 -120.191782 -67.470097 0.443 104.301958 122.088233 -47.715668 10.16095 13.09075 2.880721 20.379614 -6.697085 -8.713014 -60.891944 -40.75395 24.779715 -63.249993 126.143729 -13.870994 -163.944338
